<svg width="36" height="36" viewBox="0 0 36 36" fill="none" xmlns="http://www.w3.org/2000/svg">
<rect width="36" height="36" rx="10" fill="#0F1E56"/>
<path d="M24.8295 11.8637C24.9652 11.8637 25.0952 11.9284 25.1911 12.0435C25.287 12.1586 25.3409 12.3146 25.3409 12.4774V23.5228C25.3409 23.6856 25.287 23.8417 25.1911 23.9567C25.0952 24.0718 24.9652 24.1365 24.8295 24.1365H11.5341C11.3985 24.1365 11.2684 24.0718 11.1725 23.9567C11.0766 23.8417 11.0227 23.6856 11.0227 23.5228V12.4774C11.0227 12.3146 11.0766 12.1586 11.1725 12.0435C11.2684 11.9284 11.3985 11.8637 11.5341 11.8637H24.8295ZM11.5341 10.6365C11.1272 10.6365 10.737 10.8304 10.4493 11.1757C10.1616 11.5209 10 11.9891 10 12.4774V23.5228C10 24.0111 10.1616 24.4793 10.4493 24.8246C10.737 25.1698 11.1272 25.3637 11.5341 25.3637H24.8295C25.2364 25.3637 25.6266 25.1698 25.9143 24.8246C26.202 24.4793 26.3636 24.0111 26.3636 23.5228V12.4774C26.3636 11.9891 26.202 11.5209 25.9143 11.1757C25.6266 10.8304 25.2364 10.6365 24.8295 10.6365H11.5341Z" fill="white"/>
<path d="M15.1134 17.9999C15.1134 17.8372 15.1673 17.6811 15.2632 17.566C15.3591 17.4509 15.4891 17.3863 15.6248 17.3863H22.7838C22.9195 17.3863 23.0495 17.4509 23.1454 17.566C23.2413 17.6811 23.2952 17.8372 23.2952 17.9999C23.2952 18.1627 23.2413 18.3188 23.1454 18.4338C23.0495 18.5489 22.9195 18.6136 22.7838 18.6136H15.6248C15.4891 18.6136 15.3591 18.5489 15.2632 18.4338C15.1673 18.3188 15.1134 18.1627 15.1134 17.9999ZM15.1134 14.9318C15.1134 14.769 15.1673 14.6129 15.2632 14.4978C15.3591 14.3828 15.4891 14.3181 15.6248 14.3181H22.7838C22.9195 14.3181 23.0495 14.3828 23.1454 14.4978C23.2413 14.6129 23.2952 14.769 23.2952 14.9318C23.2952 15.0945 23.2413 15.2506 23.1454 15.3657C23.0495 15.4807 22.9195 15.5454 22.7838 15.5454H15.6248C15.4891 15.5454 15.3591 15.4807 15.2632 15.3657C15.1673 15.2506 15.1134 15.0945 15.1134 14.9318ZM15.1134 21.0681C15.1134 20.9054 15.1673 20.7493 15.2632 20.6342C15.3591 20.5191 15.4891 20.4545 15.6248 20.4545H22.7838C22.9195 20.4545 23.0495 20.5191 23.1454 20.6342C23.2413 20.7493 23.2952 20.9054 23.2952 21.0681C23.2952 21.2309 23.2413 21.3869 23.1454 21.502C23.0495 21.6171 22.9195 21.6818 22.7838 21.6818H15.6248C15.4891 21.6818 15.3591 21.6171 15.2632 21.502C15.1673 21.3869 15.1134 21.2309 15.1134 21.0681ZM14.0907 14.9318C14.0907 15.0945 14.0368 15.2506 13.9409 15.3657C13.845 15.4807 13.7149 15.5454 13.5793 15.5454C13.4437 15.5454 13.3136 15.4807 13.2177 15.3657C13.1218 15.2506 13.0679 15.0945 13.0679 14.9318C13.0679 14.769 13.1218 14.6129 13.2177 14.4978C13.3136 14.3828 13.4437 14.3181 13.5793 14.3181C13.7149 14.3181 13.845 14.3828 13.9409 14.4978C14.0368 14.6129 14.0907 14.769 14.0907 14.9318ZM14.0907 17.9999C14.0907 18.1627 14.0368 18.3188 13.9409 18.4338C13.845 18.5489 13.7149 18.6136 13.5793 18.6136C13.4437 18.6136 13.3136 18.5489 13.2177 18.4338C13.1218 18.3188 13.0679 18.1627 13.0679 17.9999C13.0679 17.8372 13.1218 17.6811 13.2177 17.566C13.3136 17.4509 13.4437 17.3863 13.5793 17.3863C13.7149 17.3863 13.845 17.4509 13.9409 17.566C14.0368 17.6811 14.0907 17.8372 14.0907 17.9999ZM14.0907 21.0681C14.0907 21.2309 14.0368 21.3869 13.9409 21.502C13.845 21.6171 13.7149 21.6818 13.5793 21.6818C13.4437 21.6818 13.3136 21.6171 13.2177 21.502C13.1218 21.3869 13.0679 21.2309 13.0679 21.0681C13.0679 20.9054 13.1218 20.7493 13.2177 20.6342C13.3136 20.5191 13.4437 20.4545 13.5793 20.4545C13.7149 20.4545 13.845 20.5191 13.9409 20.6342C14.0368 20.7493 14.0907 20.9054 14.0907 21.0681Z" fill="white"/>
</svg>
